<svg id="Layer_1" data-name="Layer 1" xmlns="http://www.w3.org/2000/svg" xmlns:xlink="http://www.w3.org/1999/xlink" viewBox="0 0 35.71 22.85"><defs><style>.cls-1{fill:#fff;}.cls-2{fill:url(#linear-gradient);}</style><linearGradient id="linear-gradient" x1="32.05" y1="24.8" x2="2.98" y2="8.02" gradientUnits="userSpaceOnUse"><stop offset="0" stop-color="#00abe5"/><stop offset="0.13" stop-color="#0da0dd"/><stop offset="0.48" stop-color="#2a88ca"/><stop offset="0.78" stop-color="#3d79be"/><stop offset="1" stop-color="#4374ba"/></linearGradient></defs><title>loginpigshark</title><path class="cls-1" d="M18.92,6.8h0.55l0.21,0.11c0.47,0.24.5,0.35,0.25,0.81L19.12,9.25l0.22,0.18a6.37,6.37,0,0,1,2.51,4.71A1.8,1.8,0,0,1,20.1,16H15.66a1.78,1.78,0,0,1-1.72-1.37l-0.08-.35s0-.08,0-0.12a2.49,2.49,0,0,0,.05-0.3,5.59,5.59,0,0,1,.94-2.75,7.62,7.62,0,0,1,1.75-1.87c-0.33-.51-0.65-1-1-1.49a0.33,0.33,0,0,1,.06-0.48A1.52,1.52,0,0,1,17.41,7,1.68,1.68,0,0,0,18.92,6.8Zm-1.06,8.77c0.74,0,1.48,0,2.22,0a1.28,1.28,0,0,0,1.29-1.29,4.59,4.59,0,0,0-.08-0.89,6.09,6.09,0,0,0-2.41-3.7,0.6,0.6,0,0,0-.33-0.11c-0.45,0-.9,0-1.35,0a0.55,0.55,0,0,0-.31.1,5.91,5.91,0,0,0-2.51,4.42,1.32,1.32,0,0,0,1.36,1.47h2.13Zm-1.79-8C16.38,8.06,16.68,8.52,17,9a0.36,0.36,0,0,0,.25.11c0.41,0,.82,0,1.23,0A0.32,0.32,0,0,0,18.71,9c0.29-.52.57-1.06,0.9-1.67a2,2,0,0,0-.7,0,2,2,0,0,1-1.71,0A1,1,0,0,0,16.07,7.59Z"/><path class="cls-1" d="M18.19,11.43a0.86,0.86,0,0,1,.32,0,1.34,1.34,0,0,1,.3.24,0.84,0.84,0,0,1-.3.22,7.27,7.27,0,0,1-.8,0,0.35,0.35,0,1,0,0,.69H18.2a0.8,0.8,0,0,1,.78.69,0.81,0.81,0,0,1-.6.91,0.35,0.35,0,0,0-.21.22c0,0.17,0,.35-0.26.35s-0.23-.19-0.22-0.36,0-.08,0-0.17H17.32C17.16,14.22,17,14.17,17,14a0.41,0.41,0,0,1,.3-0.2,7.16,7.16,0,0,1,.77,0,0.36,0.36,0,0,0,.42-0.35,0.33,0.33,0,0,0-.42-0.34,3,3,0,0,1-.52,0,0.83,0.83,0,0,1-.74-0.75,0.81,0.81,0,0,1,.62-0.84l0.21-.06c0.07-.18-0.08-0.5.24-0.51S18.13,11.21,18.19,11.43Z"/><path class="cls-2" d="M27,20.47l-0.14,0c-0.23-2-.81-4.78-0.81-4.78a10.28,10.28,0,0,0-.35-1.24,22.76,22.76,0,0,0-6.15-9.75A17.15,17.15,0,0,0,11.16.28,13.79,13.79,0,0,0,7.6,0a13,13,0,0,1,3.1,3.54,3.45,3.45,0,0,1,.34.65,0.85,0.85,0,0,0,.83.59,22.06,22.06,0,0,1,2.47.44l-2.48.86a11.34,11.34,0,0,1-1.62,10.08H9.43c-5.06.18-7.92,2-9.37,3.32a0.19,0.19,0,0,0,.23.31c1.87-1.17,5.62-2.6,11.91-1.41,9.79,1.85,19.08,9,23.5,0C32.71,21.34,30,21.39,27,20.47Z"/><path class="cls-1" d="M21.47,10.31H21.33a3.45,3.45,0,0,0-1-1.4h0a0.94,0.94,0,0,1,.15-0.77,0.44,0.44,0,0,0,0-.45,0.44,0.44,0,0,0-.39-0.23H20a1.85,1.85,0,0,0-1.26.65,4.5,4.5,0,0,0-1.19-.16,4.21,4.21,0,0,0-2.78,1,3.27,3.27,0,0,0-1.17,2.47,3.06,3.06,0,0,0,.09.72h0a3.23,3.23,0,0,0,.26.69,3.6,3.6,0,0,0,.66,1,1.61,1.61,0,0,1,.43,1V15a0.11,0.11,0,0,0,0,0,0.42,0.42,0,0,0,.42.38h1.3A0.42,0.42,0,0,0,17.22,15V14.89a4.74,4.74,0,0,0,.61,0V15a0.42,0.42,0,0,0,.42.42h1.3A0.42,0.42,0,0,0,20,15V14.66a1.08,1.08,0,0,1,.37-0.74l0,0h0a3.44,3.44,0,0,0,.95-1.38h0.12a0.6,0.6,0,0,0,.6-0.6v-1A0.61,0.61,0,0,0,21.47,10.31Zm0.18,1.57a0.18,0.18,0,0,1-.18.18H21.2a0.21,0.21,0,0,0-.2.15,3,3,0,0,1-.88,1.35h0l0,0h0a1.49,1.49,0,0,0-.51,1h0V15h-1.3v-0.3a0.2,0.2,0,0,0-.07-0.15A0.21,0.21,0,0,0,18,14.46h0l-0.43,0a4.08,4.08,0,0,1-.55,0,0.21,0.21,0,0,0-.17.05,0.21,0.21,0,0,0-.07.16V15H15.5v-0.1h0a2,2,0,0,0-.55-1.3,3.22,3.22,0,0,1-.59-0.89h0a2.79,2.79,0,0,1-.23-0.61h0a2.67,2.67,0,0,1-.07-0.63,3.33,3.33,0,0,1,3.53-3.06,4,4,0,0,1,1.21.18A0.21,0.21,0,0,0,19,8.46a1.42,1.42,0,0,1,1.06-.59h0a0,0,0,0,1,0,0A1.36,1.36,0,0,0,19.91,9h0a0.21,0.21,0,0,0,.08.16,3,3,0,0,1,1,1.4,0.21,0.21,0,0,0,.2.14h0.29a0.18,0.18,0,0,1,.18.18v1h0Z"/><path class="cls-1" d="M17.81,11.21H17.35a0.3,0.3,0,0,1,0-.61h0.83a0.21,0.21,0,1,0,0-.42H17.79V9.91a0.21,0.21,0,1,0-.42,0v0.28h0a0.72,0.72,0,1,0,0,1.44h0.47a0.3,0.3,0,1,1,0,.61H17a0.21,0.21,0,0,0,0,.42h0.4v0.29a0.21,0.21,0,1,0,.42,0V12.65h0A0.72,0.72,0,0,0,17.81,11.21Z"/></svg>