<svg id="Layer_1" data-name="Layer 1" xmlns="http://www.w3.org/2000/svg" viewBox="0 0 35.71 22.85"><defs><style>.cls-1{fill:#157efb;}</style></defs><title>shark</title><path class="cls-1" d="M26.91,21.27c0-.07,0-0.15,0-0.22-0.16-2-.87-5.41-0.87-5.41a10.28,10.28,0,0,0-.35-1.24,22.76,22.76,0,0,0-6.15-9.75A17.15,17.15,0,0,0,11.16.28,13.79,13.79,0,0,0,7.6,0a13,13,0,0,1,3.1,3.54,3.45,3.45,0,0,1,.34.65,0.85,0.85,0,0,0,.83.59,22.08,22.08,0,0,1,2.47.44l-2.48.86A11.33,11.33,0,0,1,9,17.61,41.55,41.55,0,0,1,26.91,21.27Z"/><path class="cls-1" d="M27,20.47c-3.66-1.09-7.9-3.55-14-4.16a26,26,0,0,0-3.58-.12c-5.06.18-7.92,2-9.37,3.32a0.19,0.19,0,0,0,.23.31c1.87-1.17,5.62-2.6,11.91-1.41,9.79,1.85,19.08,9,23.5,0C32.71,21.34,30,21.39,27,20.47Z"/></svg>