<svg id="Layer_1" data-name="Layer 1" xmlns="http://www.w3.org/2000/svg" viewBox="0 0 35.71 22.85"><defs><style>.cls-1{fill:#4577bc;}.cls-2{fill:#fff;}</style></defs><title>sharkpid</title><path class="cls-1" d="M26.91,21.27c0-.07,0-0.15,0-0.22-0.16-2-.87-5.41-0.87-5.41a10.28,10.28,0,0,0-.35-1.24,22.76,22.76,0,0,0-6.15-9.75A17.15,17.15,0,0,0,11.16.28,13.79,13.79,0,0,0,7.6,0a13,13,0,0,1,3.1,3.54,3.45,3.45,0,0,1,.34.65,0.85,0.85,0,0,0,.83.59,22.08,22.08,0,0,1,2.47.44l-2.48.86A11.33,11.33,0,0,1,9,17.61,41.55,41.55,0,0,1,26.91,21.27Z"/><path class="cls-1" d="M27,20.47c-3.66-1.09-7.9-3.55-14-4.16a26,26,0,0,0-3.58-.12c-5.06.18-7.92,2-9.37,3.32a0.19,0.19,0,0,0,.23.31c1.87-1.17,5.62-2.6,11.91-1.41,9.79,1.85,19.08,9,23.5,0C32.71,21.34,30,21.39,27,20.47Z"/><path class="cls-2" d="M20.23,7.42a0.53,0.53,0,0,1,.2.85,0.62,0.62,0,0,0,.14.85c0.26,0.31.46,0.66,0.7,1a0.51,0.51,0,0,0,.26.2,0.62,0.62,0,0,1,.56.66c0,0.3,0,.6,0,0.9a0.62,0.62,0,0,1-.57.65,0.33,0.33,0,0,0-.21.16,3.63,3.63,0,0,1-.91,1.24,1.11,1.11,0,0,0-.4.89,0.52,0.52,0,0,1-.64.64h-0.9a0.56,0.56,0,0,1-.69-0.5H17.29a0.57,0.57,0,0,1-.73.5h-1a0.47,0.47,0,0,1-.53-0.49,1.76,1.76,0,0,0-.48-1.14A3.85,3.85,0,0,1,13.67,12a0.7,0.7,0,0,0-.05-0.13V11a0.36,0.36,0,0,0,0-.1,3.11,3.11,0,0,1,.89-1.72,4.32,4.32,0,0,1,4-1.15,0.34,0.34,0,0,0,.23,0,2.52,2.52,0,0,1,1.13-.59h0.28ZM20,7.94a1.29,1.29,0,0,0-.85.48,0.3,0.3,0,0,1-.38.15,3.82,3.82,0,0,0-2-.07,3,3,0,0,0-1.87,4.88,2.65,2.65,0,0,1,.7,1.55h1.22c0-.52,0-0.52.56-0.49a4.61,4.61,0,0,0,.59,0,0.3,0.3,0,0,1,.38.31c0,0.06,0,.12,0,0.19h1.2a2,2,0,0,1,.76-1.59,3.91,3.91,0,0,0,.63-1A0.42,0.42,0,0,1,21.36,12a0.22,0.22,0,0,0,.26-0.27c0-.22,0-0.43,0-0.65s-0.06-.38-0.33-0.35a0.33,0.33,0,0,1-.38-0.26,3,3,0,0,0-.84-1.21A0.53,0.53,0,0,1,19.88,9C19.88,8.63,19.93,8.28,20,7.94Z"/></svg>