<svg id="Layer_1" data-name="Layer 1" xmlns="http://www.w3.org/2000/svg" viewBox="0 0 19.63 19.91"><defs><style>.cls-1{fill:#4577bc;}.cls-2{fill:#fff;}</style></defs><title>sharkfinpig</title><path class="cls-1" d="M3.57,3.57a3.44,3.44,0,0,1,.34.65,0.85,0.85,0,0,0,.83.59,22.08,22.08,0,0,1,2.47.44L4.73,6.1C6.61,11.12,3.1,16.52,0,19.91H19.63c-0.26-1.93-.75-4.27-0.75-4.27a10.28,10.28,0,0,0-.35-1.24,22.77,22.77,0,0,0-6.15-9.75A17.15,17.15,0,0,0,4,.28,13.79,13.79,0,0,0,.47,0,13,13,0,0,1,3.57,3.57Z"/><path class="cls-2" d="M14.85,11.75H14.71a3.62,3.62,0,0,0-1.07-1.48h0a1,1,0,0,1,.16-0.81,0.46,0.46,0,0,0,0-.47,0.47,0.47,0,0,0-.41-0.24H13.35A1.94,1.94,0,0,0,12,9.43a4.73,4.73,0,0,0-1.26-.17,4.43,4.43,0,0,0-2.92,1.06,3.43,3.43,0,0,0-1.23,2.6,3.21,3.21,0,0,0,.09.76h0a3.4,3.4,0,0,0,.27.73,3.78,3.78,0,0,0,.7,1.06,1.69,1.69,0,0,1,.45,1.08v0.12a0.11,0.11,0,0,0,0,0,0.44,0.44,0,0,0,.44.4H9.95a0.44,0.44,0,0,0,.44-0.44V16.57a5,5,0,0,0,.64,0v0.08a0.44,0.44,0,0,0,.44.44h1.36a0.44,0.44,0,0,0,.44-0.44V16.33a1.13,1.13,0,0,1,.39-0.77l0.05,0h0a3.62,3.62,0,0,0,1-1.45h0.13a0.63,0.63,0,0,0,.63-0.63v-1A0.64,0.64,0,0,0,14.85,11.75ZM15,13.4a0.19,0.19,0,0,1-.19.19H14.57a0.22,0.22,0,0,0-.21.16,3.16,3.16,0,0,1-.93,1.42h0l0,0h0a1.57,1.57,0,0,0-.53,1.09h0v0.34H11.47V16.34a0.22,0.22,0,0,0-.07-0.16,0.22,0.22,0,0,0-.15-0.06h0l-0.45,0a4.29,4.29,0,0,1-.57,0,0.22,0.22,0,0,0-.17.05,0.22,0.22,0,0,0-.08.16v0.33H8.58v-0.1h0A2.13,2.13,0,0,0,8,15.18a3.39,3.39,0,0,1-.62-0.94h0a2.93,2.93,0,0,1-.24-0.64h0a2.8,2.8,0,0,1-.08-0.66A3.5,3.5,0,0,1,10.77,9.7,4.21,4.21,0,0,1,12,9.9a0.22,0.22,0,0,0,.25-0.09,1.49,1.49,0,0,1,1.11-.62h0a0,0,0,0,1,0,0,1.43,1.43,0,0,0-.21,1.16h0a0.22,0.22,0,0,0,.08.16,3.19,3.19,0,0,1,1,1.48,0.22,0.22,0,0,0,.21.15h0.3a0.19,0.19,0,0,1,.19.19v1h0Z"/><path class="cls-2" d="M11,12.7H10.52a0.32,0.32,0,0,1,0-.64h0.87a0.22,0.22,0,0,0,0-.44H11V11.33a0.22,0.22,0,0,0-.44,0v0.29h0a0.76,0.76,0,1,0,0,1.51H11a0.32,0.32,0,1,1,0,.64H10.13a0.22,0.22,0,1,0,0,.44h0.42v0.3a0.22,0.22,0,0,0,.44,0v-0.3h0A0.76,0.76,0,0,0,11,12.7Z"/></svg>