<svg id="Layer_1" data-name="Layer 1" xmlns="http://www.w3.org/2000/svg" viewBox="0 0 35.71 22.85"><defs><style>.cls-1{fill:#fff;}</style></defs><title>nabarpignegative</title><path class="cls-1" d="M28.11,8.26h-0.4a9.78,9.78,0,0,0-2.88-4h0a2.67,2.67,0,0,1,.43-2.19A1.24,1.24,0,0,0,25.3.8,1.26,1.26,0,0,0,24.2.14H24A5.24,5.24,0,0,0,20.48,2a12.77,12.77,0,0,0-3.39-.45A12,12,0,0,0,9.2,4.4a9.26,9.26,0,0,0-3.31,7,8.67,8.67,0,0,0,.24,2v0.06a9.17,9.17,0,0,0,.74,2,10.21,10.21,0,0,0,1.88,2.85A4.56,4.56,0,0,1,10,21.24v0.31a0.3,0.3,0,0,0,0,.07,1.2,1.2,0,0,0,1.19,1.08h3.68a1.2,1.2,0,0,0,1.2-1.2V21.26a13.45,13.45,0,0,0,1.73,0v0.23A1.2,1.2,0,0,0,19,22.7h3.68a1.2,1.2,0,0,0,1.2-1.2v-0.9a3.05,3.05,0,0,1,1-2.09L25,18.4h0l0,0a9.77,9.77,0,0,0,2.69-3.93h0.35a1.71,1.71,0,0,0,1.7-1.7V10A1.72,1.72,0,0,0,28.11,8.26ZM17.77,14.91h-0.1v0.81a0.59,0.59,0,0,1-1.19,0V14.91H15.36a0.59,0.59,0,1,1,0-1.19h2.38a0.86,0.86,0,1,0,0-1.72H16.41a2,2,0,1,1,0-4.09h0.07V7.12a0.59,0.59,0,0,1,1.19,0v0.8h1.08a0.59,0.59,0,1,1,0,1.19H16.41a0.86,0.86,0,0,0,0,1.72h1.32A2,2,0,0,1,17.77,14.91Z"/></svg>