<svg id="Layer_1" data-name="Layer 1" xmlns="http://www.w3.org/2000/svg" viewBox="0 0 35.71 22.85"><defs><style>.cls-1{fill:#fff;}</style></defs><title>navbarpig</title><path class="cls-1" d="M28.11,8.26h-0.4a9.78,9.78,0,0,0-2.88-4h0a2.67,2.67,0,0,1,.43-2.19A1.24,1.24,0,0,0,25.3.8,1.26,1.26,0,0,0,24.2.14H24A5.24,5.24,0,0,0,20.48,2a12.77,12.77,0,0,0-3.39-.45A12,12,0,0,0,9.2,4.4a9.26,9.26,0,0,0-3.31,7,8.67,8.67,0,0,0,.24,2v0.06a9.17,9.17,0,0,0,.74,2,10.21,10.21,0,0,0,1.88,2.85A4.56,4.56,0,0,1,10,21.24v0.31a0.3,0.3,0,0,0,0,.07,1.2,1.2,0,0,0,1.19,1.08h3.68a1.2,1.2,0,0,0,1.2-1.2V21.26a13.45,13.45,0,0,0,1.73,0v0.23A1.2,1.2,0,0,0,19,22.7h3.68a1.2,1.2,0,0,0,1.2-1.2v-0.9a3.05,3.05,0,0,1,1-2.09L25,18.4h0l0,0a9.77,9.77,0,0,0,2.69-3.93h0.35a1.71,1.71,0,0,0,1.7-1.7V10A1.72,1.72,0,0,0,28.11,8.26Zm0.52,4.45a0.52,0.52,0,0,1-.52.52H27.34a0.59,0.59,0,0,0-.57.42,8.53,8.53,0,0,1-2.51,3.83h0l-0.13.12h0a4.23,4.23,0,0,0-1.44,3h0V21.5H19V20.63a0.58,0.58,0,0,0-.2-0.44,0.59,0.59,0,0,0-.4-0.15H18.31a11.22,11.22,0,0,1-1.22.06,11.58,11.58,0,0,1-1.55-.1,0.58,0.58,0,0,0-.47.14,0.6,0.6,0,0,0-.2.44v0.9h-3.7V21.2a5.74,5.74,0,0,0-1.55-3.69A9.14,9.14,0,0,1,7.94,15v0a7.91,7.91,0,0,1-.65-1.72h0a7.56,7.56,0,0,1-.21-1.79c0-4.79,4.49-8.69,10-8.69a11.37,11.37,0,0,1,3.43.52A0.6,0.6,0,0,0,21.19,3a4,4,0,0,1,3-1.68,0.07,0.07,0,0,1,.07,0,0.06,0.06,0,0,1,0,.07,3.85,3.85,0,0,0-.56,3.14v0a0.58,0.58,0,0,0,.22.44,8.61,8.61,0,0,1,2.82,4,0.59,0.59,0,0,0,.56.41h0.82a0.52,0.52,0,0,1,.52.52v2.74h0Z"/><path class="cls-1" d="M17.73,10.82H16.41a0.86,0.86,0,1,1,0-1.72h2.34a0.59,0.59,0,1,0,0-1.19H17.67V7.12a0.59,0.59,0,1,0-1.19,0v0.8H16.41a2,2,0,1,0,0,4.09h1.32a0.86,0.86,0,1,1,0,1.72H15.36a0.59,0.59,0,1,0,0,1.19h1.13v0.81a0.59,0.59,0,1,0,1.19,0V14.91h0.1A2,2,0,0,0,17.73,10.82Z"/></svg>