<svg id="Layer_1" data-name="Layer 1" xmlns="http://www.w3.org/2000/svg" viewBox="0 0 35.71 22.85"><defs><style>.cls-1{fill:#4577bc;}.cls-2{fill:#fff;}</style></defs><title>sharkmoney</title><path class="cls-1" d="M26.91,21.27c0-.07,0-0.15,0-0.22-0.16-2-.87-5.41-0.87-5.41a10.28,10.28,0,0,0-.35-1.24,22.76,22.76,0,0,0-6.15-9.75A17.15,17.15,0,0,0,11.16.28,13.79,13.79,0,0,0,7.6,0a13,13,0,0,1,3.1,3.54,3.45,3.45,0,0,1,.34.65,0.85,0.85,0,0,0,.83.59,22.08,22.08,0,0,1,2.47.44l-2.48.86A11.33,11.33,0,0,1,9,17.61,41.55,41.55,0,0,1,26.91,21.27Z"/><path class="cls-1" d="M27,20.47c-3.66-1.09-7.9-3.55-14-4.16a26,26,0,0,0-3.58-.12c-5.06.18-7.92,2-9.37,3.32a0.19,0.19,0,0,0,.23.31c1.87-1.17,5.62-2.6,11.91-1.41,9.79,1.85,19.08,9,23.5,0C32.71,21.34,30,21.39,27,20.47Z"/><path class="cls-2" d="M18.92,6.8h0.55l0.21,0.11c0.47,0.24.5,0.35,0.25,0.81L19.12,9.25l0.22,0.18a6.37,6.37,0,0,1,2.51,4.71A1.8,1.8,0,0,1,20.1,16H15.66a1.78,1.78,0,0,1-1.72-1.37l-0.08-.35s0-.08,0-0.12a2.49,2.49,0,0,0,.05-0.3,5.59,5.59,0,0,1,.94-2.75,7.62,7.62,0,0,1,1.75-1.87c-0.33-.51-0.65-1-1-1.49a0.33,0.33,0,0,1,.06-0.48A1.52,1.52,0,0,1,17.41,7,1.68,1.68,0,0,0,18.92,6.8Zm-1.06,8.77c0.74,0,1.48,0,2.22,0a1.28,1.28,0,0,0,1.29-1.29,4.59,4.59,0,0,0-.08-0.89,6.09,6.09,0,0,0-2.41-3.7,0.6,0.6,0,0,0-.33-0.11c-0.45,0-.9,0-1.35,0a0.55,0.55,0,0,0-.31.1,5.91,5.91,0,0,0-2.51,4.42,1.32,1.32,0,0,0,1.36,1.47h2.13Zm-1.79-8C16.38,8.06,16.68,8.52,17,9a0.36,0.36,0,0,0,.25.11c0.41,0,.82,0,1.23,0A0.32,0.32,0,0,0,18.71,9c0.29-.52.57-1.06,0.9-1.67a2,2,0,0,0-.7,0,2,2,0,0,1-1.71,0A1,1,0,0,0,16.07,7.59Z"/><path class="cls-2" d="M18.19,11.43a0.86,0.86,0,0,1,.32,0,1.34,1.34,0,0,1,.3.24,0.84,0.84,0,0,1-.3.22,7.27,7.27,0,0,1-.8,0,0.35,0.35,0,1,0,0,.69H18.2a0.8,0.8,0,0,1,.78.69,0.81,0.81,0,0,1-.6.91,0.35,0.35,0,0,0-.21.22c0,0.17,0,.35-0.26.35s-0.23-.19-0.22-0.36,0-.08,0-0.17H17.32C17.16,14.22,17,14.17,17,14a0.41,0.41,0,0,1,.3-0.2,7.16,7.16,0,0,1,.77,0,0.36,0.36,0,0,0,.42-0.35,0.33,0.33,0,0,0-.42-0.34,3,3,0,0,1-.52,0,0.83,0.83,0,0,1-.74-0.75,0.81,0.81,0,0,1,.62-0.84l0.21-.06c0.07-.18-0.08-0.5.24-0.51S18.13,11.21,18.19,11.43Z"/></svg>