<svg id="Layer_1" data-name="Layer 1" xmlns="http://www.w3.org/2000/svg" viewBox="0 0 35.71 22.85"><defs><style>.cls-1{fill:#4577bc;}.cls-2{fill:#fff;}</style></defs><title>sharkpigmoney</title><path class="cls-1" d="M26.91,21.27c0-.07,0-0.15,0-0.22-0.16-2-.87-5.41-0.87-5.41a10.28,10.28,0,0,0-.35-1.24,22.76,22.76,0,0,0-6.15-9.75A17.15,17.15,0,0,0,11.16.28,13.79,13.79,0,0,0,7.6,0a13,13,0,0,1,3.1,3.54,3.45,3.45,0,0,1,.34.65,0.85,0.85,0,0,0,.83.59,22.08,22.08,0,0,1,2.47.44l-2.48.86A11.33,11.33,0,0,1,9,17.61,41.55,41.55,0,0,1,26.91,21.27Z"/><path class="cls-1" d="M27,20.47c-3.66-1.09-7.9-3.55-14-4.16a26,26,0,0,0-3.58-.12c-5.06.18-7.92,2-9.37,3.32a0.19,0.19,0,0,0,.23.31c1.87-1.17,5.62-2.6,11.91-1.41,9.79,1.85,19.08,9,23.5,0C32.71,21.34,30,21.39,27,20.47Z"/><path class="cls-2" d="M21.65,10.25H21.51a3.62,3.62,0,0,0-1.07-1.48h0A1,1,0,0,1,20.6,8a0.46,0.46,0,0,0,0-.47,0.47,0.47,0,0,0-.41-0.24H20.15a1.94,1.94,0,0,0-1.32.68,4.73,4.73,0,0,0-1.26-.17,4.43,4.43,0,0,0-2.92,1.06,3.43,3.43,0,0,0-1.23,2.6,3.21,3.21,0,0,0,.09.76h0a3.4,3.4,0,0,0,.27.73,3.78,3.78,0,0,0,.7,1.06,1.69,1.69,0,0,1,.45,1.08v0.12a0.11,0.11,0,0,0,0,0,0.44,0.44,0,0,0,.44.4h1.36a0.44,0.44,0,0,0,.44-0.44V15.07a5,5,0,0,0,.64,0v0.08a0.44,0.44,0,0,0,.44.44h1.36a0.44,0.44,0,0,0,.44-0.44V14.83a1.13,1.13,0,0,1,.39-0.77l0.05,0h0a3.62,3.62,0,0,0,1-1.45h0.13a0.63,0.63,0,0,0,.63-0.63v-1A0.64,0.64,0,0,0,21.65,10.25Zm0.19,1.65a0.19,0.19,0,0,1-.19.19H21.37a0.22,0.22,0,0,0-.21.16,3.16,3.16,0,0,1-.93,1.42h0l0,0h0a1.57,1.57,0,0,0-.53,1.09h0v0.34H18.27V14.84a0.22,0.22,0,0,0-.07-0.16A0.22,0.22,0,0,0,18,14.62h0l-0.45,0a4.29,4.29,0,0,1-.57,0,0.22,0.22,0,0,0-.17.05,0.22,0.22,0,0,0-.08.16v0.33H15.38v-0.1h0a2.13,2.13,0,0,0-.57-1.37,3.39,3.39,0,0,1-.62-0.94h0a2.93,2.93,0,0,1-.24-0.64h0a2.8,2.8,0,0,1-.08-0.66A3.5,3.5,0,0,1,17.57,8.2a4.21,4.21,0,0,1,1.27.19,0.22,0.22,0,0,0,.25-0.09,1.49,1.49,0,0,1,1.11-.62h0a0,0,0,0,1,0,0A1.43,1.43,0,0,0,20,8.89h0a0.22,0.22,0,0,0,.08.16,3.19,3.19,0,0,1,1,1.48,0.22,0.22,0,0,0,.21.15h0.3a0.19,0.19,0,0,1,.19.19v1h0Z"/><path class="cls-2" d="M17.81,11.2H17.32a0.32,0.32,0,1,1,0-.64h0.87a0.22,0.22,0,1,0,0-.44h-0.4V9.83a0.22,0.22,0,0,0-.44,0v0.29h0a0.76,0.76,0,0,0,0,1.51h0.49a0.32,0.32,0,1,1,0,.64H16.93a0.22,0.22,0,0,0,0,.44h0.42V13a0.22,0.22,0,1,0,.44,0v-0.3h0A0.76,0.76,0,0,0,17.81,11.2Z"/></svg>